<svg width="26" height="26" viewBox="0 0 26 26" fill="none" xmlns="http://www.w3.org/2000/svg">
<mask id="mask0_208_26" style="mask-type:luminance" maskUnits="userSpaceOnUse" x="1" y="3" width="24" height="20">
<path d="M22.2084 4.33333H3.79169C2.89422 4.33333 2.16669 5.06087 2.16669 5.95833V20.0417C2.16669 20.9391 2.89422 21.6667 3.79169 21.6667H22.2084C23.1058 21.6667 23.8334 20.9391 23.8334 20.0417V5.95833C23.8334 5.06087 23.1058 4.33333 22.2084 4.33333Z" stroke="white" stroke-width="2" stroke-linejoin="round"/>
<path d="M2.16669 5.95833C2.16669 5.52735 2.33789 5.11403 2.64264 4.80928C2.94739 4.50453 3.36071 4.33333 3.79169 4.33333H22.2084C22.6393 4.33333 23.0527 4.50453 23.3574 4.80928C23.6621 5.11403 23.8334 5.52735 23.8334 5.95833V10.8333H2.16669V5.95833Z" fill="white" stroke="white" stroke-width="2"/>
<path d="M4.33333 7.58332C4.33333 6.98501 4.81836 6.49999 5.41667 6.49999C6.01498 6.49999 6.5 6.98501 6.5 7.58332C6.5 8.18163 6.01498 8.66666 5.41667 8.66666C4.81836 8.66666 4.33333 8.18163 4.33333 7.58332Z" fill="black"/>
<path d="M7.58333 7.58332C7.58333 6.98501 8.06836 6.49999 8.66667 6.49999C9.26498 6.49999 9.75 6.98501 9.75 7.58332C9.75 8.18163 9.26498 8.66666 8.66667 8.66666C8.06836 8.66666 7.58333 8.18163 7.58333 7.58332Z" fill="black"/>
</mask>
<g mask="url(#mask0_208_26)">
<path d="M0 0H26V26H0V0Z" fill="#505050"/>
</g>
</svg>
