<svg width="28" height="32" viewBox="0 0 28 32" fill="none" xmlns="http://www.w3.org/2000/svg">
<path d="M14.875 8H7.29171C5.03654 8 3.20837 10.0893 3.20837 12.6667V19.3333C3.20837 21.9107 5.03654 24 7.29171 24H14.875C17.1302 24 18.9584 21.9107 18.9584 19.3333V12.6667C18.9584 10.0893 17.1302 8 14.875 8Z" stroke="#505050" stroke-width="1.5" stroke-linecap="round" stroke-linejoin="round"/>
<path d="M18.9584 12.9867L23.1047 10.6267C23.2826 10.5254 23.4801 10.4777 23.6787 10.4881C23.8772 10.4986 24.0701 10.5668 24.2391 10.6863C24.408 10.8059 24.5475 10.9727 24.6442 11.1711C24.7409 11.3695 24.7917 11.5929 24.7917 11.82V20.1773C24.7918 20.4047 24.741 20.6282 24.6443 20.8268C24.5475 21.0254 24.4079 21.1924 24.2387 21.3119C24.0696 21.4315 23.8765 21.4997 23.6778 21.5099C23.4791 21.5202 23.2815 21.4723 23.1035 21.3707L18.9584 19.0067V12.9867Z" stroke="#505050" stroke-width="1.5" stroke-linecap="round" stroke-linejoin="round"/>
</svg>
